<svg width="786" height="130" viewBox="0 0 786 130" fill="none" xmlns="http://www.w3.org/2000/svg">
<path fill-rule="evenodd" clip-rule="evenodd" d="M578.549 115L623.737 15H647.015L693.571 115H668.924L660.248 94.4521H611.519L603.197 115H578.549ZM619.286 75.274L635.376 35.5479L652.15 75.274H619.286Z" fill="#A41D21"/>
<path d="M722.327 115H746.975V79.3836L786 15H763.406L734.651 57.4658L708.634 15H683.986L722.327 79.3836V115Z" fill="#A41D21"/>
<path d="M548.424 115L582.657 15H560.748L536.785 84.863L512.138 15H490.913L466.95 84.863L442.987 15H419.709L452.572 115H478.589L501.183 47.8767L524.461 115H548.424Z" fill="#A41D21"/>
<path fill-rule="evenodd" clip-rule="evenodd" d="M311.533 15V115H367.675C393.692 115 412.862 95.8219 412.862 66.3699C412.862 36.9178 395.061 15 367.675 15H311.533ZM334.812 95.8219V34.1781H364.937C383.422 34.1781 390.953 50.6164 390.953 66.3699C390.953 82.1233 381.368 95.8219 364.937 95.8219H334.812Z" fill="#A41D21"/>
<path d="M288.255 15H264.977V115H288.255V15Z" fill="#A41D21"/>
<path fill-rule="evenodd" clip-rule="evenodd" d="M139 115L184.187 15H207.466L254.022 115H229.375L220.698 94.4521H171.97L163.648 115H139ZM179.737 75.274L195.826 35.5479L212.601 75.274H179.737Z" fill="#A41D21"/>
<path fill-rule="evenodd" clip-rule="evenodd" d="M130 65C130 100.899 100.36 130 65 130C32.2529 130 4.4122 104.673 0.475998 72.7572C4.06913 74.4853 6.95501 74.8906 12.7967 75.1646C36.4208 74.7804 48.4018 70.8059 66.605 54.3004L56.7078 48.6831L94.4239 34.5062L82.1194 71.4198L75.4321 62.0576C60.3777 76.0227 51.1055 81.2434 32.9013 85.3292L25.679 100.509C35.3614 111.072 49.2735 117.695 64.7325 117.695C68.398 117.695 71.9764 117.323 75.4321 116.614C78.4365 114.576 79.1629 113.53 80.5144 108.868C81.866 104.207 82.6544 102.449 86.9342 98.7037C88.099 97.6845 88.9466 96.9031 89.6767 96.23C91.6293 94.4299 92.7414 93.4047 96.8313 90.679C100.284 88.3779 102.928 84.9659 104.701 82.677C105.813 81.2409 106.583 80.2469 106.996 80.2469C108.066 80.2469 109.175 82.2102 109.671 85.3292C110.14 88.2781 108.266 90.4158 106.272 92.6911C106.157 92.8224 106.041 92.9541 105.926 93.0864C105.355 93.7411 104.856 94.3292 104.395 94.8719C103.148 96.3408 102.183 97.4774 100.844 98.7037C99.01 100.383 99.3176 101.913 102.45 101.914C102.594 101.876 102.732 101.843 102.867 101.81C104.789 101.342 105.987 101.051 113.148 92.2839C117.779 86.3514 119.106 82.7171 120.37 75.9671C121.455 68.2153 123.045 66.6049 123.58 66.07C124.115 65.535 127.615 63.2815 130 65ZM12.0928 70.6173C11.8792 68.6851 11.7695 66.7216 11.7695 64.7325C11.7695 35.4819 35.4819 11.7695 64.7325 11.7695C93.9832 11.7695 117.695 35.4819 117.695 64.7325C117.695 67.74 117.445 70.689 116.963 73.5597C118.134 67.9015 118.81 64.7619 121.708 62.0576C124.836 59.9109 126.621 59.7812 129.824 60.1852C127.361 26.5351 99.2791 0 65 0C29.1015 0 0 29.5302 0 65C0 65.8056 0.0152905 66.6082 0.0455911 67.4074C4.01429 69.6051 6.76129 70.1678 12.0928 70.6173ZM43.3334 65.535L28.3539 70.0823L52.963 18.4568L66.605 16.5844L76.5021 36.9136L65.2675 40.6584L59.9177 30.7613L43.3334 65.535ZM89.0741 63.6625L83.9918 78.9095L90.1441 90.679L99.2387 83.1893L89.0741 63.6625Z" fill="#A41D21"/>
</svg>
